<svg id="Layer_1" data-name="Layer 1" xmlns="http://www.w3.org/2000/svg" xmlns:xlink="http://www.w3.org/1999/xlink" viewBox="0 0 1366 600"><defs><style>.cls-1{fill:#22a1c4;}.cls-2{fill-opacity:0.32;fill:url(#linear-gradient);}.cls-3{fill-opacity:0.43;fill:url(#linear-gradient-2);}.cls-4{fill-opacity:0.45;fill:url(#linear-gradient-3);}.cls-5{fill:url(#linear-gradient-4);}.cls-6{fill:url(#linear-gradient-5);}.cls-7{fill-opacity:0.23;fill:url(#linear-gradient-6);}.cls-8{fill-opacity:0.36;fill:url(#linear-gradient-7);}</style><linearGradient id="linear-gradient" x1="549.65" y1="552.52" x2="1218.95" y2="-272.92" gradientTransform="matrix(1, 0, 0, -1, 0, 600)" gradientUnits="userSpaceOnUse"><stop offset="0" stop-color="#00f1cd"/><stop offset="1" stop-color="#0075b7"/></linearGradient><linearGradient id="linear-gradient-2" x1="444.34" y1="893.66" x2="1348.59" y2="-221.53" gradientTransform="matrix(1, 0, 0, -1, 0, 600)" gradientUnits="userSpaceOnUse"><stop offset="0" stop-color="#00b4d4" stop-opacity="0.3"/><stop offset="0.23" stop-color="#079dc9" stop-opacity="0.42"/><stop offset="0.66" stop-color="#1962ae" stop-opacity="0.73"/><stop offset="1" stop-color="#292d95"/></linearGradient><linearGradient id="linear-gradient-3" x1="818.08" y1="770.16" x2="1487.38" y2="-55.28" gradientTransform="matrix(1, 0, 0, -1, 0, 600)" gradientUnits="userSpaceOnUse"><stop offset="0" stop-color="#00b4d4"/><stop offset="0.12" stop-color="#0998c7"/><stop offset="0.3" stop-color="#1471b5"/><stop offset="0.48" stop-color="#1d54a7"/><stop offset="0.66" stop-color="#243e9d"/><stop offset="0.84" stop-color="#283197"/><stop offset="1" stop-color="#292d95"/></linearGradient><linearGradient id="linear-gradient-4" x1="543.12" y1="299.33" x2="1366" y2="299.33" gradientTransform="matrix(1, 0, 0, -1, 0, 600)" gradientUnits="userSpaceOnUse"><stop offset="0" stop-color="#00ace4"/><stop offset="1" stop-color="#0075b7"/></linearGradient><linearGradient id="linear-gradient-5" x1="1481.56" y1="722.09" x2="946.72" y2="-172.24" xlink:href="#linear-gradient"/><linearGradient id="linear-gradient-6" x1="818.08" y1="770.16" x2="1487.38" y2="-55.28" gradientTransform="matrix(1, 0, 0, -1, 0, 600)" gradientUnits="userSpaceOnUse"><stop offset="0" stop-color="#00b4d4"/><stop offset="0.06" stop-color="#06a2cb"/><stop offset="0.18" stop-color="#107ebb"/><stop offset="0.31" stop-color="#1960ad"/><stop offset="0.45" stop-color="#204aa2"/><stop offset="0.6" stop-color="#253a9b"/><stop offset="0.77" stop-color="#283096"/><stop offset="1" stop-color="#292d95"/></linearGradient><linearGradient id="linear-gradient-7" x1="525.2" y1="382.39" x2="1111.7" y2="-340.97" gradientTransform="matrix(1, 0, 0, -1, 0, 600)" gradientUnits="userSpaceOnUse"><stop offset="0" stop-color="#224370" stop-opacity="0"/><stop offset="0.04" stop-color="#20406c" stop-opacity="0.06"/><stop offset="0.39" stop-color="#0f2849" stop-opacity="0.58"/><stop offset="0.72" stop-color="#051934" stop-opacity="0.89"/><stop offset="1" stop-color="#01142d"/></linearGradient></defs><title>Artboard 1</title><rect class="cls-1" y="0.67" width="1366" height="600"/><polygon class="cls-2" points="143.9 600.67 547.19 0.67 1366 0.67 1366 600.67 143.9 600.67"/><polygon class="cls-3" points="0 0.67 1366 600.67 1366 0.67 0 0.67"/><polygon class="cls-4" points="547.19 0.67 1094.04 600.28 1366 600.67 1366 0.67 547.19 0.67"/><polygon class="cls-5" points="1366 0.67 1366 600.67 543.12 600.67 1366 0.67"/><polygon class="cls-6" points="1091.46 0.67 822.09 600.67 1366 600.67 1366 0.67 1091.46 0.67"/><polygon class="cls-7" points="1366 600.67 547.19 0.67 1366 0.67 1366 600.67"/><polygon class="cls-8" points="1366 223.81 0 600.67 1366 600.67 1366 223.81"/></svg>