<svg id="Layer_1" data-name="Layer 1" xmlns="http://www.w3.org/2000/svg" xmlns:xlink="http://www.w3.org/1999/xlink" viewBox="0 0 104 44"><defs><style>.cls-1,.cls-2,.cls-3,.cls-4,.cls-5,.cls-6,.cls-7,.cls-8{fill-rule:evenodd;}.cls-1{fill:url(#linear-gradient);}.cls-2{fill:url(#linear-gradient-2);}.cls-3{fill:url(#linear-gradient-3);}.cls-4{fill:url(#linear-gradient-4);}.cls-6{fill:#ed3539;}.cls-7{fill:#c7c8ca;}.cls-8{fill:#231f20;}.cls-9{font-size:4.11px;fill:#fff;font-family:MyriadPro-SemiboldIt, Myriad Pro;font-weight:600;font-style:italic;letter-spacing:0.02em;}.cls-10{letter-spacing:0.04em;}.cls-11{letter-spacing:0.03em;}.cls-12{fill:#0074bb;}.cls-13{fill:#ee4036;}</style><linearGradient id="linear-gradient" x1="97.76" y1="7.74" x2="100.86" y2="9.53" gradientUnits="userSpaceOnUse"><stop offset="0" stop-color="#ec1c24"/><stop offset="1" stop-color="#fff" stop-opacity="0"/></linearGradient><linearGradient id="linear-gradient-2" x1="70.43" y1="25.06" x2="70.43" y2="29.57" gradientUnits="userSpaceOnUse"><stop offset="0" stop-color="#ee4036"/><stop offset="1" stop-color="#be1e2d"/></linearGradient><linearGradient id="linear-gradient-3" x1="17.82" y1="25.06" x2="17.82" y2="29.57" xlink:href="#linear-gradient-2"/><linearGradient id="linear-gradient-4" x1="46.25" y1="25.06" x2="46.25" y2="29.57" xlink:href="#linear-gradient-2"/></defs><title>Artboard 1</title><polygon class="cls-1" points="100.73 9.75 96.61 9.75 97.88 7.52 102 7.52 100.73 9.75"/><polygon class="cls-2" points="60.45 25.06 59.99 27.02 61.54 27.02 61.4 27.61 59.85 27.61 59.39 29.57 59.39 29.57 80.41 29.57 81.47 25.06 60.45 25.06"/><polygon class="cls-3" points="32.06 29.57 32.52 27.61 30.97 27.61 31.11 27.02 32.66 27.02 33.12 25.06 3.43 25.06 2.53 29.57 32.06 29.57 32.06 29.57"/><polygon class="cls-4" points="59.34 27.02 59.79 25.06 33.77 25.06 33.31 27.02 34.86 27.02 34.72 27.61 33.17 27.61 32.71 29.57 32.71 29.57 58.74 29.57 58.74 29.57 59.2 27.61 57.65 27.61 57.79 27.02 59.34 27.02"/><path class="cls-5" d="M88.7,9.85l.4-.15a2.73,2.73,0,0,0-.69.4.11.11,0,0,1-.07,0A3.18,3.18,0,0,1,88.7,9.85Z"/><path class="cls-5" d="M95.89,11.4l.07-.15a.22.22,0,0,0,0,.15Z"/><path class="cls-5" d="M96,13.14v-.37a1.22,1.22,0,0,1,0-.33A7,7,0,0,1,96,13.14Z"/><polygon class="cls-5" points="84.09 16.64 84.13 16.57 84.13 16.64 84.09 16.64"/><path class="cls-5" d="M83.75,18.82a2.15,2.15,0,0,1-.1-.27.23.23,0,0,0,.14.08C83.79,18.73,83.78,18.79,83.75,18.82Z"/><path class="cls-5" d="M65,17.85V17.7h0s0,0,0,0A.24.24,0,0,1,65,17.85Z"/><path class="cls-5" d="M75.42,11.33s0,0,0,.07v.26c0-.07-.09-.2-.19-.41Z"/><path class="cls-5" d="M67.25,17.11v.33a.3.3,0,0,1,0-.11s0-.07,0-.07Z"/><path class="cls-5" d="M37.81,8.84a1.26,1.26,0,0,0-.12.26l-.1.23a.76.76,0,0,1-.18.22l-.15.07A3.5,3.5,0,0,1,37.81,8.84Z"/><path class="cls-5" d="M4.33,14.56v-.27a.53.53,0,0,1,.15.12A.54.54,0,0,1,4.33,14.56Z"/><path class="cls-5" d="M4.33,15.59V15l.26.14A1.8,1.8,0,0,1,4.33,15.59Z"/><polygon class="cls-5" points="4.92 17.39 4.92 17.27 5 17.39 4.92 17.39"/><path class="cls-6" d="M37.79,12.68q2.64.09,4.32.3c1,.08,2,.19,2.86.34a.74.74,0,0,0,.26,0c1.52.24,2.64.45,3.38.62l.87.21.85.2,2.6.74c1,.33,1.68.56,2,.71a20.11,20.11,0,0,1,2.09.85,20.91,20.91,0,0,1,2.2,1,17.69,17.69,0,0,1,4.37,3.16,21.2,21.2,0,0,0-2.39-1.38c-.63-.3-1.49-.67-2.57-1.1a50,50,0,0,0-6.52-1.93,76.56,76.56,0,0,0-7.73-1.26,71,71,0,0,0-8.55-.48,81.89,81.89,0,0,0-11.18.77,52.78,52.78,0,0,0-9.39,2,26.57,26.57,0,0,0-4,1.56l-.09,0h-.06a26.19,26.19,0,0,0-2.71,1.49,15.63,15.63,0,0,1,3-2.27c.65-.37,1.11-.62,1.35-.73l.56-.3A39.83,39.83,0,0,1,17.8,15.5l1.36-.44.66-.22c1.69-.47,3.13-.8,4.29-1,.35-.09.94-.22,1.76-.37A10.69,10.69,0,0,0,27,13.28a64.87,64.87,0,0,1,8.33-.63h.55C36.73,12.65,37.37,12.66,37.79,12.68Z"/><path class="cls-7" d="M35.88,15.31h-.44a88.44,88.44,0,0,0-9,.56l-.88.1-.88.12a.1.1,0,0,0-.07,0,46.82,46.82,0,0,0-5.36,1l-1,.25-1,.24c-.75.2-1.41.39-2,.59s-1.42.45-2.2.74c-.32.12-.88.37-1.69.74a18.54,18.54,0,0,0-3,1.6,14.61,14.61,0,0,1,2.71-2.08.21.21,0,0,1,.15-.07,26.57,26.57,0,0,1,4-1.56,52.78,52.78,0,0,1,9.39-2,81.89,81.89,0,0,1,11.18-.77,71,71,0,0,1,8.55.48,76.56,76.56,0,0,1,7.73,1.26,50,50,0,0,1,6.52,1.93c1.08.43,1.94.8,2.57,1.1a14.9,14.9,0,0,1,2.39,2,26.34,26.34,0,0,0-5-2.45l-.55-.2a3.67,3.67,0,0,0-.58-.2c-.28-.11-.62-.23-1-.35L55.46,18c-.44-.14-1-.29-1.59-.46l-1.71-.43L51,16.82c-.46-.09-.87-.16-1.22-.2l-.86-.19c-.35-.07-.64-.12-.89-.15-.69-.12-1.89-.27-3.59-.48a67.88,67.88,0,0,0-7-.44C37.11,15.33,36.59,15.31,35.88,15.31Z"/><path class="cls-5" d="M35,11.89a.15.15,0,0,0,0,.08s.06.08.06.1a1.12,1.12,0,0,1,0,.29H35Z"/><path class="cls-5" d="M10.82,18.89v0h.07l.06,0A.24.24,0,0,0,10.82,18.89Z"/><path class="cls-8" d="M25.89,13,23.61,4A4.32,4.32,0,0,0,23,2.39a1.45,1.45,0,0,0-.39-.3A1.42,1.42,0,0,0,22.08,2a1.09,1.09,0,0,0-.82.39,3.85,3.85,0,0,0-.58,1.51L17.81,15c.52-.18,1-.33,1.37-.45l.65-.2,2.31-9.46,2,8.45C24.47,13.28,25.06,13.15,25.89,13Z"/><path class="cls-8" d="M41.11,21.17s-.09,0-.26,0l-.39,0a.21.21,0,0,1-.07-.15v-.14a1.92,1.92,0,0,0-.39,0l-.29,0-.36,0H39l0,0a0,0,0,0,1,0,0,.56.56,0,0,0-.17.06.63.63,0,0,1-.42,0c-.17,0-.26-.08-.26-.12s-.25-.05-.29-.17a.78.78,0,0,0-.13-.33c-.13,0-.2,0-.2-.12l0-.09v-.09a2.82,2.82,0,0,1,.19-.68,2.83,2.83,0,0,0,.1-.5v-.5l0-.06a.26.26,0,0,1-.07-.12s0-.11,0-.21a.35.35,0,0,1,.06-.24v-.74l0,0c0,.06-.07.06-.07,0s-.09,0-.09,0-.1-.06-.1-.18v-.32l0-.21a2.68,2.68,0,0,1,0-.8c0-.35,0-.58.07-.68q-.52,0-1.56,0h-.46a.6.6,0,0,1-.07.27.34.34,0,0,1,.17.29l.13.3a.33.33,0,0,1,0,.15V16a.8.8,0,0,1,0,.44.41.41,0,0,0-.07.12.53.53,0,0,1-.26-.06v.06l0,0v.86c0-.06.08-.09.1-.09a.15.15,0,0,1,.16,0,.14.14,0,0,1,.1.21,3,3,0,0,1,0,.38s0,.17,0,.39t0,.09v.09h-.1a.12.12,0,0,1-.16,0,.61.61,0,0,1-.1-.15v1a.58.58,0,0,1,0-.21v0a.16.16,0,0,1,0-.09v0a.26.26,0,0,1,.19-.12c.07,0,.12.05.16.15V19a1.56,1.56,0,0,1-.06.44v.06l.06.06v.15l-.06.12h0v0l0,0a.21.21,0,0,1-.16.06.32.32,0,0,1-.16-.06V20l0-.06v.12l-.07.23a.84.84,0,0,1-.06.18.18.18,0,0,0-.07.15v0a.33.33,0,0,1,.07.15l-.07,0-.16.11h-.49v.18a1.28,1.28,0,0,1-.2.12.22.22,0,0,1-.13-.06A.29.29,0,0,1,34,21h-.36l-.36,0v.12s-.06.08-.19.12l-.27.09s0,0-.06,0l0,0H32.7a2.56,2.56,0,0,1-.39,0h0l0,0c.09,0,.15.06.2.18s-.09.2-.2.2-.26,0-.26-.11a.15.15,0,0,0-.07-.12l-.09-.15a1.34,1.34,0,0,0-.1.33v.38s0,.06,0,.06a.76.76,0,0,0,.46.56.31.31,0,0,1,.13-.06l-.36-.29-.1-.09a.13.13,0,0,1,0-.12v-.06a.18.18,0,0,1,.3,0,.77.77,0,0,1,.26.21,2.83,2.83,0,0,1,.35.26c.07.08.1.13.1.15a.19.19,0,0,1,0,.15h.1a.18.18,0,0,1,0-.18l.07-.06v0l.19,0,.33-.06h.13l.16.06h.16l.1-.09a.16.16,0,0,1,.2,0l.36.14a1.57,1.57,0,0,1,.39-.08,1.06,1.06,0,0,1,.42.06l.1-.06a.61.61,0,0,1,.26-.09s.11,0,.2,0h.32c.07-.08.13-.08.2,0s0,0,.09.09a.18.18,0,0,1,0,.08h.06a.86.86,0,0,1,.23,0,2,2,0,0,1,.39,0c.15,0,.23.08.23.12l.52,0h.52a.18.18,0,0,1,.17-.2.86.86,0,0,1,.35-.09.28.28,0,0,1,.26.11H40a.25.25,0,0,1,.16.27l0,0a2.52,2.52,0,0,0,.91-.15v0c.05,0,.07-.07.07-.09l0,0s0,0,.07-.06l0-.06a356476772716.22,356476772716.22,0,0,0,.06-.06l.14-.06h0a1.12,1.12,0,0,0,0-.27v-.24a.72.72,0,0,0-.13-.44C41.28,21.34,41.2,21.29,41.11,21.17Z"/><path class="cls-8" d="M51.18,20.76a.74.74,0,0,0-.36-.09,1.42,1.42,0,0,0-.52.09,5.15,5.15,0,0,1-.59,0,.93.93,0,0,1-.52-.18.86.86,0,0,1-.19-.56v-.63a3.29,3.29,0,0,1,.16-.62l.62-2.64L48.9,16a5.59,5.59,0,0,0-.88-.15l-.75,3a3.73,3.73,0,0,1-.65,1.51,1.4,1.4,0,0,1-1.08.42,1.29,1.29,0,0,1-.29,0,.8.8,0,0,0-.39-.09c-.15,0-.31.12-.46.35a1.18,1.18,0,0,0-.23.77,1.12,1.12,0,0,0,.26.77.79.79,0,0,0,.66.3l1.17-.06a22.4,22.4,0,0,1,2.35-.12A8.17,8.17,0,0,1,50,22.8l.89.06a.82.82,0,0,0,.65-.27,1.59,1.59,0,0,0,.22-.83,1.3,1.3,0,0,0-.26-.8A.86.86,0,0,0,51.18,20.76Z"/><path class="cls-8" d="M45,12.85a.41.41,0,0,0,.26.05h.23l.09-.2a.38.38,0,0,0,.07-.18c-.07-.06-.1-.25-.1-.56a1.82,1.82,0,0,1-.06-.54l.06-.83a.23.23,0,0,1,0-.09s0,0,.07-.05v0a.76.76,0,0,0-.07-.24c-.06-.14-.1-.25-.13-.33l-.32-.8c-.15-.25-.31-.38-.46-.38s-.24-.1-.26-.18a1,1,0,0,1-.1-.33l-.22-.23h-.36l-.13,0a.3.3,0,0,1-.33-.24.49.49,0,0,1,0-.15.39.39,0,0,1-.2-.06H43a.11.11,0,0,1-.07,0l-.16-.09a.35.35,0,0,1-.16,0l-.07,0s0,0-.1,0a.3.3,0,0,1-.26.09,1.78,1.78,0,0,1-.65,0h-.06c-.09-.06-.14-.1-.14-.12a.29.29,0,0,1,0-.17l-.32,0a1.33,1.33,0,0,0-.33.08l0,.06c0,.1-.09.19-.26.27a4.23,4.23,0,0,1-.69.3.6.6,0,0,1-.52-.09c0,.06,0,.09-.1.09a.09.09,0,0,0-.06,0,0,0,0,0,0,0,0,.58.58,0,0,0-.17.14l-.09.09a.09.09,0,0,0-.07,0l0,0a.1.1,0,0,1-.07.06,1,1,0,0,1-.23.18v0l.07,0,0,0h.07c0-.06,0-.09.1-.09l0,0a0,0,0,0,1,0,0s0-.06,0-.06l.13-.06c.09-.08.17-.08.23,0a.35.35,0,0,1-.1.42l0,0a0,0,0,0,1,0,0l-.07.09a.1.1,0,0,1-.09.06l-.07,0h-.06a.36.36,0,0,0-.2.24c-.09.18-.15.33-.2.45a.31.31,0,0,1-.29.2.54.54,0,0,1-.16.09l-.16,0c-.07,0-.1,0-.1-.09a.23.23,0,0,1,0-.11v-1q-.16.06-.33-.18a.32.32,0,0,1-.06-.18.31.31,0,0,1,.1-.15L37.26,8v0a.2.2,0,0,0-.06-.15.23.23,0,0,0-.2-.09,1.31,1.31,0,0,0-.49-.06c.11,0,.17.06.17.18s-.06.21-.17.21A.61.61,0,0,1,36.16,8c-.09,0-.12-.15-.1-.33h-.65a.55.55,0,0,1-.33.18,1.48,1.48,0,0,1-.33,0,1,1,0,0,1-.68-.21c-.17,0-.51,0-1-.06a1.42,1.42,0,0,0-.91.24l.06.06v.2a.52.52,0,0,1-.13.24l0,.06v.18a.74.74,0,0,1,.06.27.7.7,0,0,1,.17.23.33.33,0,0,1,0,.15.12.12,0,0,1,0,.09l.16.06a.31.31,0,0,0,.13,0A.73.73,0,0,1,33,9.2a5.51,5.51,0,0,1,.66,0,.87.87,0,0,1,.39.18,1.27,1.27,0,0,1,.75.26,1,1,0,0,1,.36.45,6.28,6.28,0,0,1,.19.74.48.48,0,0,1,.39.15c.09.12.05.23-.13.32a1.85,1.85,0,0,1,.2.83v0h.1q1.26,0,1.89,0a.09.09,0,0,0,0-.06l.06-.08A.44.44,0,0,0,38,12l.1-.06v-.09a1.23,1.23,0,0,0,.13-.48c-.07,0-.11,0-.13-.06a.11.11,0,0,1,0-.11.27.27,0,0,1,.29-.18l.3-.65a1.78,1.78,0,0,0,.22-.27.88.88,0,0,1,.23-.24v0a.2.2,0,0,1-.13-.2l0,0a.12.12,0,0,1,.1-.06l.16-.06c0-.06,0-.11.13-.15l0-.06s.09,0,.23,0a.3.3,0,0,1,.22,0c.4-.1.67-.16.82-.18a.45.45,0,0,1,0-.23.23.23,0,0,1,.16-.06,1.23,1.23,0,0,1,.46.06,3.45,3.45,0,0,1,.36.29,2,2,0,0,1,1.07.56c0-.07,0-.11.13-.11h.17a.89.89,0,0,1,.32.32.22.22,0,0,1,.07.21.52.52,0,0,1-.07.21.33.33,0,0,1,.29.26.51.51,0,0,1,0,.21.23.23,0,0,1,0,.09.11.11,0,0,1-.1.06.19.19,0,0,1-.13-.06v0l0,0a.52.52,0,0,1-.33.56,2.61,2.61,0,0,1-.62.21.29.29,0,0,0,.17,0l.06.06h0s0-.06,0-.06l.06-.06h.13a.21.21,0,0,1,.13.21,1.39,1.39,0,0,0-.1.21l-.16.06h-.42l-.2-.09a.21.21,0,0,1-.1-.12,0,0,0,0,1,0,0l-.13.12,0,.06s0,0,0,.08h0v.06a.29.29,0,0,1,.23,0,.12.12,0,0,1,.1.12,0,0,0,0,0,0,0,.17.17,0,0,1,0,.12C43.16,12.6,44.12,12.71,45,12.85Z"/><path class="cls-8" d="M13.11,18.45c-.32.13-.89.38-1.69.74v0a.77.77,0,0,1-.07.47c-.08.08-.18,0-.29-.27l-.19.51a.2.2,0,0,1,.06.2.78.78,0,0,1-.1.3,4.07,4.07,0,0,1-.42.5.27.27,0,0,1-.23.06.36.36,0,0,1-.16-.11,2.4,2.4,0,0,1-1.21.23.76.76,0,0,1-.49-.06,1.08,1.08,0,0,0-.52-.12c-.26,0-.41-.09-.45-.17a.51.51,0,0,1-.1-.21v-.24a1.64,1.64,0,0,0-.07-.44A.16.16,0,0,1,7,19.78a.53.53,0,0,1-.06-.15.49.49,0,0,1,0-.15v-.29s0,0-.06-.09v-.65a.42.42,0,0,1,0-.18A.12.12,0,0,1,7,18.15a2.75,2.75,0,0,0,0-.5c0-.08-.08-.18-.13-.3V16.9a.35.35,0,0,1,.13-.29c0-.34,0-.83,0-1.48a3.25,3.25,0,0,1-.16-.54A.91.91,0,0,1,7,14.12a.94.94,0,0,0-.09-.36v-.17A.22.22,0,0,1,7,13.44v-.15c-.08,0-.15-.06-.19-.18a.52.52,0,0,1,0-.35A.38.38,0,0,1,7,12.55v-1a.58.58,0,0,1-.16-.29A.22.22,0,0,1,7,11v-.53a1.37,1.37,0,0,1,.1-.54c0-.18.19-.27.43-.27a.23.23,0,0,1-.13-.26.27.27,0,0,1,.26-.12L8,9.41a.32.32,0,0,1,.35,0,1.27,1.27,0,0,1,.39-.18.33.33,0,0,1,.36,0,.56.56,0,0,0,.36.09q.33,0,.42.18h.2a.88.88,0,0,1,.39-.15l.3.12c.08,0,.14.05.16,0s0-.14.16-.18,0-.06.13-.12l.1,0a.09.09,0,0,0,.06,0s0,0,.07-.09,0-.06.06-.06.07,0,.07.06a.49.49,0,0,0,0-.15V8.84a.13.13,0,0,1,.07-.2,1,1,0,0,0-.46-.83l-.32.12a.22.22,0,0,1-.13.06.28.28,0,0,1-.17-.09c-.09-.1-.07-.19,0-.27a.4.4,0,0,0-.17,0,.32.32,0,0,1-.16.06c-.07.06-.11.09-.13.09s-.15.1-.2,0a1.25,1.25,0,0,0-.52-.09,2.56,2.56,0,0,0-.45,0,.38.38,0,0,1-.2-.12c0-.06-.08-.06-.1,0l-.16.06a.19.19,0,0,1-.13-.06c-.09-.08-.16-.08-.23,0a.1.1,0,0,1-.06.09L8,7.78a.47.47,0,0,1-.33,0l-.1-.06a.12.12,0,0,1-.06-.12.57.57,0,0,1-.43-.12A.4.4,0,0,1,7,7.19c-.15,0-.2-.14-.16-.3A.87.87,0,0,1,7,6.53a.68.68,0,0,1,0-.41,5.18,5.18,0,0,0,0-.53c0-.16,0-.26-.13-.3s-.17-.08-.17-.24a1.69,1.69,0,0,1,.07-.53,1.73,1.73,0,0,1,.1-.24A.38.38,0,0,1,7,4.1a.68.68,0,0,0-.32-.62.73.73,0,0,1-.23.15s-.07.05-.1,0l-.13-.21a.37.37,0,0,0-.06-.15A.14.14,0,0,0,6,3.24a.81.81,0,0,0-.33.06l-.29.06c0,.06-.06.11-.16.15A.46.46,0,0,1,5,3.57a.42.42,0,0,0-.1.44L5,4.4a.45.45,0,0,1,0,.33A.58.58,0,0,0,5.06,5a.37.37,0,0,1,.1.3s-.08.08-.26.12A.43.43,0,0,1,5,5.7V6c0,.12,0,.18-.1.18a.47.47,0,0,0-.16.23.63.63,0,0,0,.13.21,2.44,2.44,0,0,1,.1.24c0,.18,0,.28-.26.3a1.51,1.51,0,0,1,0,.32q0,.18-.3.12-.12.21-.42.12a2.27,2.27,0,0,1-.49-.12.42.42,0,0,1-.19.09L3,7.81a.47.47,0,0,1-.49-.09.73.73,0,0,0-.23.15.33.33,0,0,0,0,.15v.17a.73.73,0,0,1,.22.06c.05,0,.08.05.1.15a.26.26,0,0,1-.29.24H2v.18a.37.37,0,0,1,.23-.12.13.13,0,0,1,.16.06c.15.06.14.15,0,.29v0l.06,0c.09-.08.17-.08.23,0a.19.19,0,0,1,0,.27.63.63,0,0,0-.14.21,1.6,1.6,0,0,0,.82.11c.17,0,.47,0,.88,0a.37.37,0,0,1,.26.09.57.57,0,0,1,.13.27.17.17,0,0,1,.13.09.81.81,0,0,1,.1.18,1.36,1.36,0,0,1,.06.38s0,.09,0,.21a.43.43,0,0,1-.07.24.49.49,0,0,1,.1.2.57.57,0,0,0,0,.18q.17.15,0,.27a.24.24,0,0,1-.1.18c-.09,0-.09.11,0,.2a.46.46,0,0,1,.07.3,1.93,1.93,0,0,1,.16.21q0,.12,0,.15a.86.86,0,0,1-.39.26A.37.37,0,0,0,5,13.2a.21.21,0,0,1,.13,0,.17.17,0,0,1,.06.12.22.22,0,0,1-.1.21,1,1,0,0,0-.09.26,1.42,1.42,0,0,1,.23.33c0,.12,0,.26-.2.41l.2.12c.12.06.15.21.06.45A1.29,1.29,0,0,1,5,15.6c.13,0,.2.06.2.18S5.13,16,5,16l-.16.12a.45.45,0,0,0,.09.32.49.49,0,0,1,0,.5,2.69,2.69,0,0,1,.27.48.54.54,0,0,1-.23.35c0,.18,0,.49,0,.92a1.8,1.8,0,0,0,.06.24q.08.21,0,.3a.28.28,0,0,1,0,.35c0,.06-.1.13-.23.21s.05.12.16.18l.17.12a.17.17,0,0,1,0,.26.11.11,0,0,1-.1.09.19.19,0,0,1-.13-.06,3,3,0,0,1,.06.36.68.68,0,0,1,.23.12.9.9,0,0,1,.07.26l.09.15q0,.09,0,.12a.51.51,0,0,0,0,.21.75.75,0,0,1,.26,0,1.13,1.13,0,0,1,.23.15.2.2,0,0,1,.1.08.19.19,0,0,1,0,.15.76.76,0,0,1-.1.12.22.22,0,0,1-.19,0,5.15,5.15,0,0,0,.48.45c0-.12.06-.18.17-.18s.19.08.19.24a2.29,2.29,0,0,0,.36.14.3.3,0,0,1,.26.21,2.17,2.17,0,0,1,.43,0,.92.92,0,0,1,.39.15,1.5,1.5,0,0,0,0,.18.38.38,0,0,0,.16,0,1.09,1.09,0,0,0,.26,0,2.62,2.62,0,0,0,.49,0,.81.81,0,0,1,.33.06l.58,0a1.23,1.23,0,0,1,.56-.33.6.6,0,0,1,.59,0l.06-.15a.42.42,0,0,1,.29-.09,4,4,0,0,0,.85-.68.27.27,0,0,1,.07-.26.2.2,0,0,1,.09-.09l.1-.09a3.6,3.6,0,0,0,.43-.59c-.18,0-.24-.06-.2-.18s.12-.25.23-.27l.06-.15a.31.31,0,0,0,.07-.2c.06-.2.1-.31.1-.33a.22.22,0,0,1-.07-.27.11.11,0,0,1,.1-.06c.06,0,.11,0,.13,0a2.05,2.05,0,0,0,.1-.41.93.93,0,0,1-.17-.53Z"/><path class="cls-8" d="M20.38,20.7a2.31,2.31,0,0,0-.52.06,5.15,5.15,0,0,1-.59,0,.71.71,0,0,1-.49-.18,1,1,0,0,1-.19-.56q0-.42,0-.63l0-.32.07-.3.55-2.16-1,.24c-.52.13-.84.21-1,.23l-.46,1.75a3.82,3.82,0,0,1-.65,1.51,1.36,1.36,0,0,1-1,.42,1.84,1.84,0,0,1-.33,0,1.14,1.14,0,0,0-.39-.06A.55.55,0,0,0,14,21a1.18,1.18,0,0,0-.23.77,1.15,1.15,0,0,0,.3.77.68.68,0,0,0,.62.3l1.2-.06a22.83,22.83,0,0,1,2.32-.12,9.34,9.34,0,0,1,1.4.12l.88.06a.67.67,0,0,0,.62-.27,1.25,1.25,0,0,0,.22-.83A1.09,1.09,0,0,0,21,21,.83.83,0,0,0,20.38,20.7Z"/><path class="cls-8" d="M13.11,16.22A1.47,1.47,0,0,1,13,15.9a.61.61,0,0,0-.33-.3,1.22,1.22,0,0,0-.42-.18.22.22,0,0,1-.13.06.27.27,0,0,1-.2.12,1.64,1.64,0,0,1-.16.18c-.07.08-.12.12-.17.12s-.19-.05-.19-.15a1.31,1.31,0,0,0-.2.3c.16,0,.23.06.23.17a.44.44,0,0,1-.1.3l.26.21c.07.06.07.14,0,.23l-.16.09a.22.22,0,0,1-.16,0v.18c.19.12.25.23.16.33s-.16.12-.36,0v.32q.3-.09.36,0a12.49,12.49,0,0,1,1.37-.71,3.82,3.82,0,0,1,.56-.29,1.24,1.24,0,0,0-.1-.36A2.28,2.28,0,0,1,13.11,16.22Z"/><path class="cls-8" d="M29.28,20.7a.39.39,0,0,0-.2.06.73.73,0,0,1-.22,0,1.18,1.18,0,0,1-.95-.42,4.12,4.12,0,0,1-.62-1.51l-.85-3.44-.88.09-.88.12-.06,0,.75,3.17a1.25,1.25,0,0,1,.06.48,3.18,3.18,0,0,1,.07.47,1.75,1.75,0,0,1-.16.74.57.57,0,0,1-.46.27,4.8,4.8,0,0,1-.59,0,1.88,1.88,0,0,0-.49-.06.81.81,0,0,0-.62.26,1.13,1.13,0,0,0-.26.8,1.25,1.25,0,0,0,.23.83.64.64,0,0,0,.59.27l.85-.06a7.85,7.85,0,0,1,1.3-.12l1.47,0,1.56.12a4.8,4.8,0,0,0,.55,0,.84.84,0,0,0,.66-.3,1.12,1.12,0,0,0,.26-.77,1.34,1.34,0,0,0-.23-.86A1.35,1.35,0,0,0,29.28,20.7Z"/><path class="cls-8" d="M67.57,20.31a.67.67,0,0,1,.17.12,2.13,2.13,0,0,1-.17-.75Z"/><path class="cls-8" d="M95.73,24.16a.79.79,0,0,0,0-.26v-.24a1.39,1.39,0,0,1-.16.62A.18.18,0,0,0,95.73,24.16Z"/><path class="cls-8" d="M98,22.83c-.08.08-.16.08-.22,0a1.43,1.43,0,0,1-.2-.53,5.69,5.69,0,0,1-.07-.59v-.27q0-.12,0-.12a1.26,1.26,0,0,0-.19-.24.1.1,0,0,1-.1.06.14.14,0,0,1-.13-.06.83.83,0,0,1-.72-.92,4.72,4.72,0,0,0-.84-.47.3.3,0,0,1-.33.06,2.47,2.47,0,0,1-.42-.18l-.3-.24c-.28-.07-.78-.17-1.5-.29a.42.42,0,0,1-.19.15,1,1,0,0,1-.29,0,1.16,1.16,0,0,1-.4.06.86.86,0,0,1-.55,0c-.15,0-.21-.11-.16-.27h-.69l-.09.12a.46.46,0,0,1-.17.09c-.11.06-.19,0-.26-.09-.43,0-.77-.06-1-.06a1.81,1.81,0,0,1-.45.15,2.42,2.42,0,0,1-.62,0c-.09,0-.15,0-.17-.06a.18.18,0,0,1,0-.18,4.84,4.84,0,0,1-1-.24,1.17,1.17,0,0,1-.32,0,.43.43,0,0,1-.17,0,.24.24,0,0,1,0-.15L86,17.94a.56.56,0,0,1-.13-.35.57.57,0,0,0,0-.18.49.49,0,0,1,0-.15.4.4,0,0,1,0-.36.18.18,0,0,1,.07-.17s.08,0,.16,0a.94.94,0,0,1,1.08-.57c0-.19.06-.27.19-.23a1,1,0,0,1,.43.15H88l.16.14a.31.31,0,0,1,.26.12.11.11,0,0,0,.1.06.29.29,0,0,0,.1.06.23.23,0,0,1,.16.06.2.2,0,0,1,0,.21,14.09,14.09,0,0,0,1.73.23.18.18,0,0,1,0-.17.1.1,0,0,1,.1-.06.65.65,0,0,1,.39,0h.32a1.39,1.39,0,0,1,.49-.12h1a.14.14,0,0,1,.13.06A3.92,3.92,0,0,0,94,16.22a1.58,1.58,0,0,1,.19-.26,4,4,0,0,1,.3-.3.82.82,0,0,1,.32,0,3.31,3.31,0,0,0,.85-.92.39.39,0,0,1-.26-.06.25.25,0,0,1,0-.26.49.49,0,0,1,.33-.15,1.63,1.63,0,0,0,.32-.42,4.58,4.58,0,0,0,.17-.56q-.17.18-.3,0c0-.24,0-.43,0-.59A5.78,5.78,0,0,0,96,12a3.38,3.38,0,0,0,.07-.36.39.39,0,0,1-.23-.18.71.71,0,0,1,0-.29,1.66,1.66,0,0,1,.29-.57l-.36-.83h0L97,7.52H95.89c-1.46,0-2.59,0-3.34-.09h-.18a5.13,5.13,0,0,0-.88-.07.78.78,0,0,1-.52.06.87.87,0,0,0-.42-.09c0,.06,0,.09-.1.09a.13.13,0,0,1-.1,0,.12.12,0,0,1-.09,0s-.05,0-.07-.09q-.36,0-1.2.18c0,.16,0,.24-.07.24l-.16,0a.15.15,0,0,1-.13,0,.93.93,0,0,1-.26.15,1.91,1.91,0,0,1-.46.14h-.23a4.48,4.48,0,0,0-1.07.83,1.08,1.08,0,0,1,0,.36,2.53,2.53,0,0,1-.23.3.17.17,0,0,1-.13.09l-.16-.09a2.87,2.87,0,0,0-.39.77.37.37,0,0,1,.09.2.46.46,0,0,0-.06.18.72.72,0,0,1,.06.62c0,.12-.09.26-.13.42a2,2,0,0,1-.1.33h0a.36.36,0,0,1,.06.26.37.37,0,0,1-.23.12.37.37,0,0,0,0,.21c.06-.1.13-.12.19-.06a.66.66,0,0,1,.1.21.71.71,0,0,1,0,.23,3,3,0,0,0,.17.45c.06.18,0,.26-.26.26a3.68,3.68,0,0,0,.12.36c.07.14.14.26.2.36h-.16c.08.17.06.26-.07.26a1.66,1.66,0,0,1-.36,0c-.08.1-.15.15-.19.15A.32.32,0,0,1,85,15c0,.06-.08.09-.17.09a2.49,2.49,0,0,0-.84,1,.17.17,0,0,1,.22.06.74.74,0,0,1,0,.3v.27c0,.11-.07.17-.2.17h-.29a3.25,3.25,0,0,0,.13,1.16s0-.07.1-.09a.38.38,0,0,1,.16,0,.51.51,0,0,1,.29.15.75.75,0,0,0,.07.24,1.91,1.91,0,0,1,.06.41,1.54,1.54,0,0,1,0,.3.49.49,0,0,0,0,.12h.49l.16,0a.19.19,0,0,1,0,.15c0,.1-.06.17-.19.21a8.58,8.58,0,0,0,.81.44.57.57,0,0,0-.26.09.93.93,0,0,1-.29.12.63.63,0,0,1-.2.54,1.58,1.58,0,0,1-.55.23v.3a.35.35,0,0,1-.2.3s0,0-.07.05-.07,0-.09,0a.23.23,0,0,1-.17-.23,6.65,6.65,0,0,0-.55,1.06.21.21,0,0,1,.29.06q.11.15,0,.24a.68.68,0,0,0-.16.27s0,.11,0,.23h-.07a.3.3,0,0,1,.13.27v.21a.84.84,0,0,1,.3.44v.33l-.1.15c0,.15-.1.19-.23.12a4.66,4.66,0,0,0,.49.94q.06-.26.36-.06a3,3,0,0,1,.49.42l.36.35,0,.15a.88.88,0,0,1,0,.21h.26a.52.52,0,0,1,.22.06q.08.09,0,.18a1.1,1.1,0,0,0,.36.2c0-.13.09-.18.26-.14l.56.09.39.14c.13,0,.19.05.19.15a.14.14,0,0,1,0,.24,1,1,0,0,1,.33.06l.71.12c-.1-.14-.09-.23,0-.27a.6.6,0,0,1,.42,0,.51.51,0,0,0,.2.06q.09,0,.09,0h.49a5.21,5.21,0,0,1,.65,0c.2.08.3.18.3.29.41,0,.73,0,.94,0,0-.13.12-.18.23-.14a1.15,1.15,0,0,0,.3,0,.31.31,0,0,1,.16-.12,2,2,0,0,1,.36,0l.84-.12a1.93,1.93,0,0,1,.59.06,2.49,2.49,0,0,0,.36-.12,1.47,1.47,0,0,0,.36-.12l.23-.15a.38.38,0,0,1,.19-.11.84.84,0,0,1,.2-.15.73.73,0,0,1,.22-.06.6.6,0,0,1,.36-.12c.16-.06.23-.14.23-.24s0-.18.13-.18a.18.18,0,0,1,.2,0,5.77,5.77,0,0,0,.91-1,1.63,1.63,0,0,1-.07-.45.83.83,0,0,1,.3-.29v-.33c0-.14.06-.21.19-.21A4.63,4.63,0,0,0,98,22.83ZM87.52,11.45a1.53,1.53,0,0,1,.29-.68c.11-.2.23-.29.36-.29l.26-.3c-.17-.08-.25-.19-.23-.33a.85.85,0,0,1,.39-.35,1.57,1.57,0,0,1,.4-.27l.39-.12a.31.31,0,0,1,.23.12.23.23,0,0,1-.07.27,5.4,5.4,0,0,1,.91-.24l-.13-.06a.1.1,0,0,1-.06-.09.17.17,0,0,1,0-.12s0,0,.06-.06.22-.07.4,0a1.34,1.34,0,0,0,.39,0,1.38,1.38,0,0,1,.45.09c.18,0,.26.12.26.24a3.24,3.24,0,0,1,.43.18,3.84,3.84,0,0,1,1.49,1A3.1,3.1,0,0,1,94.53,12a2.5,2.5,0,0,0,0,.32c0,.22-.09.33-.26.33,0,.08,0,.22,0,.44s0,.2,0,.36-.19.21-.43.21a1.13,1.13,0,0,1,0,.38.28.28,0,0,1-.23.3.24.24,0,0,1-.2-.09V14a3.52,3.52,0,0,1-1.53.86A.62.62,0,0,1,92,15h.88a.28.28,0,0,1,.13-.15s.06,0,.13,0a.76.76,0,0,1,.16.36c0,.11-.15.17-.33.17a2.77,2.77,0,0,1-.68,0,2.77,2.77,0,0,0-.42,0,.21.21,0,0,1-.2-.12s0-.05,0-.05l-.07-.06a.26.26,0,0,1-.16.09l-.26,0a2.63,2.63,0,0,1-.36-.21c-.43-.06-.74-.11-.91-.15a.14.14,0,0,1-.13.12.42.42,0,0,1-.26,0l-.59-.39a1.63,1.63,0,0,1-.36-.41,2.86,2.86,0,0,1-.88-1.54s0,0-.06-.09a.31.31,0,0,1-.07-.21V12A.72.72,0,0,1,87.52,11.45ZM96.19,24a1.34,1.34,0,0,1-.2.41.14.14,0,0,1-.09.15l-.17.12a.26.26,0,0,1-.09.18l-.1.06-.13,0c-.13,0-.21,0-.23-.09a5.56,5.56,0,0,1-1.24.77,1.14,1.14,0,0,0,.29-.09.52.52,0,0,1,.3-.06l.32-.21a.19.19,0,0,1,.17.06s.06.08.06.18a.17.17,0,0,1,0,.12.4.4,0,0,1-.13.06.38.38,0,0,1-.13.12l-.2,0a1.26,1.26,0,0,0-.26.06.27.27,0,0,1-.26.12h-.2a.67.67,0,0,0-.29.12,1.15,1.15,0,0,1-.26,0L93,26.06a1.16,1.16,0,0,0-.26.15.35.35,0,0,1-.17.06.49.49,0,0,1-.19-.06q-.3-.09-.3-.24a7.08,7.08,0,0,1-1.66.09.22.22,0,0,1-.19.09.89.89,0,0,1-.43.09l-.65,0a2.23,2.23,0,0,1-.49-.15.28.28,0,0,1-.13,0,.38.38,0,0,1-.16,0,1.13,1.13,0,0,0-.29-.06.35.35,0,0,1-.23.06c-.13,0-.2,0-.2-.09s-.17-.19-.13-.38a1.13,1.13,0,0,0-.29-.15,2.71,2.71,0,0,0-.49-.21.64.64,0,0,0-.29-.09,3.89,3.89,0,0,1-.36-.26.31.31,0,0,1-.07-.12.49.49,0,0,1,0-.12,1.26,1.26,0,0,1,0-.21,3,3,0,0,1-.26-.89.22.22,0,0,1-.07-.27.79.79,0,0,1,.07-.29q-.08-.33.06-.39a.18.18,0,0,0,.1-.11,1.89,1.89,0,0,0,.1-.21c-.07,0-.1-.05-.1-.09s0-.08.1-.12.11-.18.26-.24a.31.31,0,0,1,.32,0,2.34,2.34,0,0,1,1-.5.31.31,0,0,1,.16-.24.29.29,0,0,1,.23-.12c.09,0,.14,0,.16,0l.1.09.85-.17q.17-.33.36-.33a3.77,3.77,0,0,1,.49.06.36.36,0,0,0,.39.06.44.44,0,0,1,.39,0,.31.31,0,0,0,.32.06.21.21,0,0,1,.17-.09.29.29,0,0,1,.16.09l1,.06.55.11.56.12a.43.43,0,0,1,.19-.09.16.16,0,0,1,.17.12.6.6,0,0,0,.42.15h.52a.41.41,0,0,1,.3.27.31.31,0,0,0,.06.12.11.11,0,0,1,.1.06.28.28,0,0,1,.06.08.13.13,0,0,1,0,.09.52.52,0,0,0-.07.15,2.33,2.33,0,0,1,.52,1,.82.82,0,0,1,0,.21.52.52,0,0,1,.07-.24.19.19,0,0,1,.16-.12c.05,0,.09,0,.13.12a.36.36,0,0,1,.07.24A4.2,4.2,0,0,1,96.19,24Z"/><path class="cls-8" d="M57.08,16.22,54.05,4a5.81,5.81,0,0,0-.62-1.62,1.24,1.24,0,0,0-1-.39,1.05,1.05,0,0,0-.78.39,3.77,3.77,0,0,0-.62,1.51l-2.47,9.63.87.2.85.21,2.25-9L55,15.39A22.2,22.2,0,0,1,57.08,16.22Z"/><path class="cls-8" d="M60.57,20.93a1.36,1.36,0,0,0-.88-.23.53.53,0,0,0-.2.06.6.6,0,0,1-.23,0,1,1,0,0,1-.91-.42,4.46,4.46,0,0,1-.62-1.51l-.16-.71c-.28-.1-.63-.21-1-.33l-1.08-.32.36,1.33a3.7,3.7,0,0,1,.06.48,2,2,0,0,1,0,.47,2.51,2.51,0,0,1-.13.74.74.74,0,0,1-.49.27,5.15,5.15,0,0,1-.59,0,1.76,1.76,0,0,0-.46-.06.83.83,0,0,0-.65.26.64.64,0,0,0-.16.33,1.5,1.5,0,0,0-.07.47,1.31,1.31,0,0,0,.2.83.74.74,0,0,0,.59.27L55,22.8a6.91,6.91,0,0,1,1.27-.12l1.46,0,1.57.12.55,0a.71.71,0,0,0,.65-.3,1.08,1.08,0,0,0,.27-.77,1.62,1.62,0,0,0-.07-.5A.74.74,0,0,0,60.57,20.93Z"/><path class="cls-8" d="M81.33,20.93A.45.45,0,0,1,81,21c-.19,0-.3,0-.32-.06l-.33.15a1.25,1.25,0,0,1-.42.06c-.15,0-.23-.07-.23-.21H79.5a.13.13,0,0,1-.1,0l-.13,0a.61.61,0,0,1-.48-.35c-.05-.14-.12-.39-.23-.74-.07,0-.11-.09-.13-.27a.75.75,0,0,1,0-.47l.09-.39q0-1.62,0-2.49c-.09,0-.13-.14-.13-.29v-.42c0-.18.1-.27.16-.29V13.7a.36.36,0,0,1-.16-.35.65.65,0,0,1,.13-.45,1,1,0,0,1-.29-.08.26.26,0,0,1,0-.27.22.22,0,0,1,.1-.21v-.47a.78.78,0,0,1-.13-.3,2.05,2.05,0,0,1-.07-.5.3.3,0,0,1,.07-.33l-.23-.59c-.07-.14-.18-.34-.33-.59,0,0-.13,0-.26,0a.37.37,0,0,1-.16-.06.27.27,0,0,1-.13-.18.54.54,0,0,1,.1-.36,4.83,4.83,0,0,1-.53-.47c0,.16-.07.22-.29.18a2.07,2.07,0,0,1-.75-.39.91.91,0,0,1-.39-.59l-.68-.21a4.55,4.55,0,0,0-.69-.12.32.32,0,0,1-.29.15,1.36,1.36,0,0,1-.33-.06,1.38,1.38,0,0,1-.52.09,2.85,2.85,0,0,1-.72.06.61.61,0,0,1-.42-.21L71,7.48a1.8,1.8,0,0,1-.52.54,1.2,1.2,0,0,1-.66.08A.24.24,0,0,1,69.66,8a.76.76,0,0,0-.36.2,1.12,1.12,0,0,1-.16.39,1.48,1.48,0,0,1-.23.32.5.5,0,0,1-.26.24l-.33.09a.56.56,0,0,1-.19.33q-.16.16-.3,0a1.93,1.93,0,0,0-.39.41,3.72,3.72,0,0,1,.07-.8c-.11,0-.16-.17-.16-.38a3.79,3.79,0,0,0,0-.6.6.6,0,0,0-.29-.5h-.29q-.27,0-.3-.12a6.19,6.19,0,0,1-.81.06.31.31,0,0,0-.13.12.56.56,0,0,1-.17.06.24.24,0,0,1-.16.09A.28.28,0,0,1,65,7.81h-.53q-.31,0-.39-.18H63.6a.52.52,0,0,1-.26.12s0,0-.1-.06l-.1-.06a1.28,1.28,0,0,1-.46.18h-.26a.31.31,0,0,1-.19-.12A2.1,2.1,0,0,0,62,8a.81.81,0,0,0-.16.29.78.78,0,0,0,0,.68,1.61,1.61,0,0,1,0-.44.28.28,0,0,1,.23-.12.55.55,0,0,1,.16.45.76.76,0,0,0,.1.14,1.16,1.16,0,0,0,.06.15s0,.07,0,.09a.61.61,0,0,1-.16.09,1.13,1.13,0,0,0,.52.09c0-.14,0-.23.1-.27a1.1,1.1,0,0,1,.42.06,1.22,1.22,0,0,1,.43.12v.09a2.34,2.34,0,0,0,.42,0,.76.76,0,0,1,.29.09c0-.06.09-.09.13-.09a.45.45,0,0,1,.23,0l.2.12a.18.18,0,0,0,.13.06.31.31,0,0,1,.13.2.27.27,0,0,1-.13.21,2.24,2.24,0,0,1,.19.68c.11,0,.18,0,.2.09a1.67,1.67,0,0,1,.06.56,1.92,1.92,0,0,1-.23.57.09.09,0,0,1,.07,0,.1.1,0,0,0,.06.09.16.16,0,0,1,.07.14.55.55,0,0,1,0,.3.26.26,0,0,1-.23.09v.59a.22.22,0,0,1,.23.21,1.05,1.05,0,0,0,.1.3c.13.15.17.28.13.38a.44.44,0,0,1-.1.18.38.38,0,0,1-.13.09.15.15,0,0,1-.13,0,.26.26,0,0,1-.1-.15v.59c.11-.08.19-.07.23,0a.53.53,0,0,1,.1.36.57.57,0,0,1-.13.2.82.82,0,0,0-.07.21.22.22,0,0,1,.14.06.42.42,0,0,1,0,.18.28.28,0,0,1-.17.24V16c0,.06-.08.09-.13.09v1.18a.35.35,0,0,1,.17-.06l.16.09a.51.51,0,0,1,.16.33.65.65,0,0,1-.06.23,1.89,1.89,0,0,1,0,.3.66.66,0,0,1,.09.39V19c0,.12-.1.18-.19.18s-.11,0-.13-.06a.76.76,0,0,1-.1-.12,1.79,1.79,0,0,0,0-.39,1.12,1.12,0,0,0,0-.32v1.6a.16.16,0,0,1,.13.18v.26c0,.1,0,.15-.13.15s-.07,0-.16,0c0,.18,0,.3-.06.36s-.09.09-.13.09a.29.29,0,0,1-.13-.12,1.52,1.52,0,0,1-.79.17c0,.14-.06.21-.19.21a.93.93,0,0,1-.39-.06.6.6,0,0,1-.33-.2,3,3,0,0,0-.65,0,.77.77,0,0,0-.49.27.11.11,0,0,1,.13,0,.17.17,0,0,1,.1.15v.41a.51.51,0,0,1,0,.21.21.21,0,0,1-.19.12l-.23-.06a.11.11,0,0,1,0-.15,1.94,1.94,0,0,1,0-.41,1.67,1.67,0,0,0-.07.59.89.89,0,0,0,.26.5.82.82,0,0,1,0-.32.19.19,0,0,1,.16-.15c.06,0,.11,0,.13.09a2,2,0,0,1,.06.32,1.58,1.58,0,0,1,.43.06c.19.06.29.14.29.24h.33c0-.1.1-.18.26-.24a.22.22,0,0,1,.16,0,.19.19,0,0,1,.13.09.27.27,0,0,1,0-.12s0,0,.07,0a.15.15,0,0,1,.13,0,.17.17,0,0,1,.1,0,2,2,0,0,1,.36-.11c.13,0,.21.07.26.23.37,0,.92,0,1.66,0a.86.86,0,0,1,.39-.12,1.54,1.54,0,0,0,.33,0c.13-.06.2-.08.22-.06a.22.22,0,0,1,.13.23l.72.06a.19.19,0,0,1,0-.23l.1-.06h.1a2.42,2.42,0,0,0,.39.2c.2,0,.29.1.29.18h.4a.4.4,0,0,1,.19-.3.39.39,0,0,1,.36-.08.25.25,0,0,1,.19.06.16.16,0,0,1,.1.08l.13-.08.1-.12a.15.15,0,0,1-.16,0,.18.18,0,0,1-.07-.15,2.34,2.34,0,0,1,.07-.45,1.44,1.44,0,0,0,.19-.38.74.74,0,0,0-.36-.42,3,3,0,0,0-.55-.08,1.75,1.75,0,0,1-.49.17,1.06,1.06,0,0,1-.59.06c-.19,0-.29-.06-.29-.18a1.2,1.2,0,0,1-.49-.17.34.34,0,0,1,0,.17.21.21,0,0,1-.13,0,.46.46,0,0,1-.29-.17c-.07,0-.12,0-.17-.12a.19.19,0,0,1-.16-.12.54.54,0,0,1-.1-.33,5,5,0,0,1-.06-.91,2.91,2.91,0,0,0,.06-.57.19.19,0,0,1,0-.12.18.18,0,0,1,.13-.06.25.25,0,0,1,.16.06.33.33,0,0,1,.06.12V18.3c-.11.16-.18.16-.22,0a.76.76,0,0,1-.07-.42v-.35a1,1,0,0,1-.2-.42c0-.14,0-.28.2-.44a1.13,1.13,0,0,1,.16-.45.41.41,0,0,1-.06-.29,1.63,1.63,0,0,1,.19-.21l.1-1.16a.37.37,0,0,1-.1-.23.48.48,0,0,1,0-.3,1.37,1.37,0,0,1,.19-.47.31.31,0,0,1-.1-.27V13a.28.28,0,0,1,.23-.14,2.43,2.43,0,0,1,.16-.48q-.12-.12,0-.18a.42.42,0,0,1,.1-.2,1.13,1.13,0,0,1-.16-.21.12.12,0,0,1,.06-.15q0-.09.33-.27v0l.06-.09a1.71,1.71,0,0,0,.13-.23l.33-.36c-.11-.08-.14-.15-.1-.2s.06-.14.16-.18l.1-.06c.05,0,.07-.07.07-.09a.21.21,0,0,0,.23-.18.27.27,0,0,1,.09-.24q.11-.09.39,0l-.06.09a1.39,1.39,0,0,1,.68-.32,3.52,3.52,0,0,1,.72-.21.84.84,0,0,1-.26-.06A.23.23,0,0,1,70.8,9a.28.28,0,0,1,.29-.15,2.57,2.57,0,0,1,.46.09l.26.06a.31.31,0,0,1,.13.06.31.31,0,0,1,.13,0,.27.27,0,0,1,0,.12h.4a.51.51,0,0,1,0-.21.19.19,0,0,1,.23,0,1.79,1.79,0,0,0,.39,0l.16-.06a.17.17,0,0,1,.1,0,.32.32,0,0,1,.19.3l.72,0c.11,0,.29.12.55.36,0,.1,0,.16,0,.2s-.05.15-.16.15a2.07,2.07,0,0,1,.59.59.67.67,0,0,1-.07-.26v-.15a.22.22,0,0,1,.13-.09.21.21,0,0,1,.23.09l.13.36a1.17,1.17,0,0,0,.1.26.49.49,0,0,1,.33.3c0,.1,0,.25,0,.44a1.39,1.39,0,0,1,.26.24.47.47,0,0,1,.06.3.22.22,0,0,1,0,.14.19.19,0,0,1-.13,0c-.13,0-.19-.06-.19-.17l-.3-.3A5.62,5.62,0,0,1,76.11,13a.24.24,0,0,1,.2.24,2.6,2.6,0,0,1,0,.36q.09.06.09.12s0,.07,0,.17c.15,0,.22.06.22.18s-.19.27-.45.27v.44a.19.19,0,0,1,.16.12V15h0l.13.29.13.54a.79.79,0,0,1,.06.29.63.63,0,0,1,.17.42,5.32,5.32,0,0,1,0,.68.79.79,0,0,1-.13.45c-.07.11-.16.12-.29,0s-.11-.16,0-.32a4.86,4.86,0,0,0,0-.95.58.58,0,0,1-.09-.35l-.1-.24v2.87a.27.27,0,0,1,.16-.21c.07,0,.11,0,.13,0s.08,0,.1.12a1.44,1.44,0,0,1,.06.45,4.83,4.83,0,0,1-.06.56,1.82,1.82,0,0,1-.16.44,1.19,1.19,0,0,1-.07.54.23.23,0,0,1-.23.15h-.32a1.37,1.37,0,0,1-.62.14.88.88,0,0,0-.62.24c-.09.08-.16.09-.23,0a.87.87,0,0,1-.2-.12l-.13,0-.13,0a.3.3,0,0,1-.19-.14.76.76,0,0,0-.72.47c.09,0,.13.05.13.15.33,0,.46.12.39.23a.49.49,0,0,1-.19.15,2.17,2.17,0,0,1-.43,0c.05.42.21.66.49.74,0,0,0-.05.07-.09a.54.54,0,0,1,.13-.06,1.73,1.73,0,0,1,.32,0c.16,0,.24.1.26.2l.36-.06a.29.29,0,0,1,.26.15,2.51,2.51,0,0,0,.56-.09.12.12,0,0,1,.06-.15.41.41,0,0,1,.23-.11h.62a1,1,0,0,1,.49.06.55.55,0,0,1,.29-.06c.07,0,.1.07.1.2h.26a.2.2,0,0,1,0-.23.35.35,0,0,1,.23-.06l.52.2a1.19,1.19,0,0,0,.52.12c-.06-.12,0-.2.07-.26a1.92,1.92,0,0,1,.39,0,.83.83,0,0,1,.33.23.53.53,0,0,0,.35,0,1.48,1.48,0,0,0,.33,0v0s0,0,.1,0a.51.51,0,0,1,.19-.06h.46a1.32,1.32,0,0,1,.39.06s.06.05.1.15l.36-.15a.87.87,0,0,1,0-.41A.63.63,0,0,1,82,22a.86.86,0,0,0-.13-.68A.94.94,0,0,0,81.33,20.93Z"/><polygon class="cls-8" points="76.21 19.16 76.28 19.13 76.18 18.74 76.18 19.19 76.21 19.16"/><text class="cls-9" transform="translate(6.98 28.64) scale(1.1 1)">P<tspan class="cls-10" x="2.29" y="0" xml:space="preserve">ayments            Mobile             N</tspan><tspan class="cls-11" x="56.67" y="0">F</tspan><tspan class="cls-10" x="58.81" y="0">C</tspan></text><path class="cls-12" d="M14.45,32.83a5.65,5.65,0,0,0-2.69-.49,3.22,3.22,0,0,0-.9.1.65.65,0,0,0-.41.34l0,.07C9.19,34.2,8.11,35.4,7.19,36.48a13.33,13.33,0,0,1-4.84-.12c-.13,0-.35-.18-.35,0s.26.33.44.38a12.33,12.33,0,0,0,4.2.37l-.07.09a21.68,21.68,0,0,0-1.74,2.2c0,.07,0,.14.15.2a1.34,1.34,0,0,0,.48.08,1,1,0,0,0,.44-.09,1.12,1.12,0,0,0,.32-.33q.33-.44.78-1L8.07,37h.08a16.25,16.25,0,0,0,2.66-.49,14.12,14.12,0,0,0,1.77-.6l.33-.15h0a3.93,3.93,0,0,0,2-1.65C15.21,33.57,15,33.15,14.45,32.83ZM14,34A3.84,3.84,0,0,1,12,35.43l-.39.17h0l-.23.08a11.31,11.31,0,0,1-2.39.6l-.34.05c.39-.47.82-1,1.28-1.48s1-1,1.51-1.57a2.57,2.57,0,0,1,.4-.06,3,3,0,0,1,.42,0,3.28,3.28,0,0,1,1.37.22C14,33.57,14.06,33.76,14,34Z"/><path class="cls-12" d="M12.41,38.67a6.69,6.69,0,0,1-1.27.79,2.87,2.87,0,0,1-1.1.28.65.65,0,0,1-.54-.2.45.45,0,0,1,0-.49,3.3,3.3,0,0,1,.62-.87,8,8,0,0,1,1.11-1,6.49,6.49,0,0,1,1.3-.82,2.53,2.53,0,0,1,1.06-.29.89.89,0,0,1,.38.07.83.83,0,0,1,.27.26l.29,0h.19a.94.94,0,0,1,.46.09q.15.09.09.21a2,2,0,0,1-.4.39l-.49.41c-.35.31-.65.6-.89.86a2.6,2.6,0,0,0-.43.54Q13,39,13,39a.14.14,0,0,0,.11,0,1.12,1.12,0,0,0,.43-.18c.21-.11.57-.34,1.1-.69l.34-.23a.63.63,0,0,1,.28-.16.15.15,0,0,1,.14.09.18.18,0,0,1,0,.17,2.26,2.26,0,0,1-.45.4,11.31,11.31,0,0,1-1,.65,4.28,4.28,0,0,1-.72.38,1.66,1.66,0,0,1-.56.1c-.25,0-.41,0-.49-.17a.5.5,0,0,1,0-.5,1.07,1.07,0,0,1,.07-.15A.22.22,0,0,1,12.41,38.67Zm1.35-1.77c0-.06,0-.1,0-.13a.22.22,0,0,0-.16-.05,1.82,1.82,0,0,0-.77.26,6.69,6.69,0,0,0-1.07.72c-.36.3-.68.58-.94.84a2.33,2.33,0,0,0-.48.6s0,.08,0,.1,0,0,.08,0a1.59,1.59,0,0,0,.57-.2,5.91,5.91,0,0,0,.85-.52,11.71,11.71,0,0,0,1.3-1A4.2,4.2,0,0,0,13.76,36.9Z"/><path class="cls-12" d="M16.45,36.54a.52.52,0,0,1-.17-.13.12.12,0,0,1,0-.13,1,1,0,0,1,.46-.35,1.73,1.73,0,0,1,.74-.17.43.43,0,0,1,.28.07.13.13,0,0,1,0,.17.51.51,0,0,1-.08.13l-.14.18.51.11.2-.13.27-.13.15,0h.09a.69.69,0,0,1,.36.09c.11.07.14.13.11.21a.48.48,0,0,1-.16.16l-.36.18a10.65,10.65,0,0,0-1.32,1.13,3.4,3.4,0,0,0-.7,1,.27.27,0,0,0,0,.22.12.12,0,0,0,.13.09,1.62,1.62,0,0,0,.72-.27,8.3,8.3,0,0,0,1.06-.77l.18-.16c.19-.17.32-.25.4-.25a.28.28,0,0,1,.18.06.11.11,0,0,1,0,.14,1.37,1.37,0,0,1-.28.28,6.24,6.24,0,0,1-.6.48,7.6,7.6,0,0,1-1.24.77,2.19,2.19,0,0,1-.87.2.83.83,0,0,1-.65-.2.47.47,0,0,1,0-.54,3.78,3.78,0,0,1,.54-.81,11.74,11.74,0,0,1,1-1.05l-.41-.1A13,13,0,0,1,15.6,38.1a1.37,1.37,0,0,1-.71.35.2.2,0,0,1-.14-.05.1.1,0,0,1,0-.12,1.64,1.64,0,0,1,.21-.19A14.42,14.42,0,0,0,16.45,36.54Z"/><path class="cls-12" d="M21.15,35.21l-.85,0h-.55a1.15,1.15,0,0,1-.52-.08c-.1-.05-.14-.12-.09-.22s.21-.15.5-.19,1-.1,2.12-.15a5.1,5.1,0,0,1,.79-.75.85.85,0,0,1,.5-.16.77.77,0,0,1,.34.06c.08.05.1.1.07.16a6.42,6.42,0,0,0-.65.65l.83,0h.71a4.33,4.33,0,0,1,1.07.08c.18,0,.25.14.19.27a.21.21,0,0,1-.14.09A2.25,2.25,0,0,1,25,35l-1.32,0-1.43.08c-.82.8-1.52,1.55-2.09,2.23a8,8,0,0,0-1.08,1.5.35.35,0,0,0,0,.25.17.17,0,0,0,.17.09,1.29,1.29,0,0,0,.57-.19,6,6,0,0,0,.82-.52c.22-.17.45-.37.69-.59s.38-.32.43-.32a.46.46,0,0,1,.25.06c.07,0,.08.1.06.15a2.92,2.92,0,0,1-.55.54,11.44,11.44,0,0,1-1.15.82,3.2,3.2,0,0,1-.77.37,2.34,2.34,0,0,1-.76.13.59.59,0,0,1-.56-.24.72.72,0,0,1,.05-.66,7.61,7.61,0,0,1,1-1.41C19.75,36.74,20.38,36,21.15,35.21Z"/><path class="cls-12" d="M23.84,37.58c-.44.31-.95.71-1.54,1.19a3.6,3.6,0,0,1-1.43.87.67.67,0,0,1-.46-.13.29.29,0,0,1,0-.36,5.74,5.74,0,0,1,.73-1,15.89,15.89,0,0,1,1.33-1.4,1.65,1.65,0,0,1,.41-.3.94.94,0,0,1,.39-.07.63.63,0,0,1,.32.07c.08,0,.11.11.08.18a1.33,1.33,0,0,1-.19.17,12,12,0,0,0-1.93,2.07c1.18-1,2.07-1.64,2.68-2.06a3,3,0,0,1,1.23-.62.73.73,0,0,1,.45.13c.11.08.15.17.1.28a.48.48,0,0,1-.25.18l-.22.09a3.21,3.21,0,0,0-.27.25c-.14.13-.3.3-.47.49a10.06,10.06,0,0,0-.64.78,2.7,2.7,0,0,0-.36.55.28.28,0,0,0,0,.18s0,.07.1.07a4.33,4.33,0,0,0,1.41-.86l.32-.24.11-.09a.4.4,0,0,1,.28-.13.34.34,0,0,1,.19.08c.06.06.09.1.07.14a3.36,3.36,0,0,1-.66.59,7,7,0,0,1-1.23.8,1.85,1.85,0,0,1-.42.17,1.32,1.32,0,0,1-.39.06.58.58,0,0,1-.55-.23.75.75,0,0,1,.06-.67,5.36,5.36,0,0,1,.29-.5C23.45,38.09,23.62,37.85,23.84,37.58Z"/><path class="cls-12" d="M26.35,38.1a3,3,0,0,0-.23.3,2.4,2.4,0,0,0-.17.32.67.67,0,0,0-.09.48c0,.11.14.17.3.17a3.15,3.15,0,0,0,1.29-.4A7.94,7.94,0,0,0,29,38l.19-.15c.18-.15.3-.23.36-.23a.2.2,0,0,1,.15.06.15.15,0,0,1,0,.16,1.5,1.5,0,0,1-.37.37,8,8,0,0,1-.79.55,8.13,8.13,0,0,1-1.5.76,3.6,3.6,0,0,1-1.26.24,1.12,1.12,0,0,1-.85-.25c-.14-.17-.13-.42,0-.75a5,5,0,0,1,.95-1.26,9.13,9.13,0,0,1,1.54-1.31A2.36,2.36,0,0,1,28,35.9a1.24,1.24,0,0,1,.47-.1l.21,0,.2.09.28.06c.31.06.41.19.32.4a3.35,3.35,0,0,1-1.19,1.3,2.79,2.79,0,0,1-1.5.59.6.6,0,0,1-.24-.05A.35.35,0,0,1,26.35,38.1Zm.69-.19a1.3,1.3,0,0,0,.73-.41,2.6,2.6,0,0,0,.64-.81.13.13,0,0,0,0-.12.14.14,0,0,0-.13,0,1.6,1.6,0,0,0-.76.4,2,2,0,0,0-.65.64.29.29,0,0,0,0,.25C26.87,37.88,26.94,37.91,27,37.91Z"/><path class="cls-12" d="M30.44,36.54a.52.52,0,0,1-.17-.13.12.12,0,0,1,0-.13,1,1,0,0,1,.46-.35,1.76,1.76,0,0,1,.74-.17.43.43,0,0,1,.28.07.13.13,0,0,1,0,.17.51.51,0,0,1-.08.13l-.14.18.51.11.2-.13.27-.13.15,0h.09a.69.69,0,0,1,.36.09c.11.07.14.13.11.21a.4.4,0,0,1-.16.16l-.35.18a10.11,10.11,0,0,0-1.33,1.13,3.4,3.4,0,0,0-.7,1,.32.32,0,0,0,0,.22.12.12,0,0,0,.13.09,1.62,1.62,0,0,0,.72-.27,8.3,8.3,0,0,0,1.06-.77l.18-.16c.19-.17.32-.25.4-.25a.28.28,0,0,1,.18.06.11.11,0,0,1,0,.14,1.37,1.37,0,0,1-.28.28,6.24,6.24,0,0,1-.6.48,7.6,7.6,0,0,1-1.24.77,2.19,2.19,0,0,1-.86.2.84.84,0,0,1-.66-.2.47.47,0,0,1,0-.54,3.78,3.78,0,0,1,.54-.81,11.74,11.74,0,0,1,1-1.05l-.41-.1a13,13,0,0,1-1.27,1.16,1.37,1.37,0,0,1-.71.35.2.2,0,0,1-.14-.05.1.1,0,0,1,0-.12,1.64,1.64,0,0,1,.21-.19A14.42,14.42,0,0,0,30.44,36.54Z"/><path class="cls-12" d="M32.8,39.64a.63.63,0,0,1-.59-.25.75.75,0,0,1,0-.69,5.58,5.58,0,0,1,.79-1.17,4.65,4.65,0,0,1,.91-.9,1.42,1.42,0,0,1,.39-.17,2.24,2.24,0,0,1,.52-.06.36.36,0,0,1,.21.05.1.1,0,0,1,0,.14l-.23.23-.22.23-.21.21A9.64,9.64,0,0,0,33,38.9a.19.19,0,0,0,0,.19s.09.06.19.06a2.16,2.16,0,0,0,.76-.28,8.59,8.59,0,0,0,1.14-.73l.22-.18c.16-.13.26-.19.31-.19a.23.23,0,0,1,.17.07.12.12,0,0,1,0,.15,4.1,4.1,0,0,1-.47.37l-.34.26a7.39,7.39,0,0,1-1.25.79A2.32,2.32,0,0,1,32.8,39.64Zm2.27-3.53a.64.64,0,0,1-.38-.09.18.18,0,0,1,0-.25.75.75,0,0,1,.48-.35,2.27,2.27,0,0,1,.74-.13.49.49,0,0,1,.31.07s0,.12,0,.21a.84.84,0,0,1-.44.37A1.59,1.59,0,0,1,35.07,36.11Z"/><path class="cls-12" d="M37.86,37.58c-.43.31-1,.71-1.54,1.19a3.53,3.53,0,0,1-1.43.87.62.62,0,0,1-.45-.13.28.28,0,0,1,0-.36,6,6,0,0,1,.74-1,14.42,14.42,0,0,1,1.32-1.4,1.86,1.86,0,0,1,.41-.3.94.94,0,0,1,.39-.07.61.61,0,0,1,.32.07q.14.07.09.18a1.33,1.33,0,0,1-.19.17,11.64,11.64,0,0,0-1.93,2.07c1.18-1,2.07-1.64,2.67-2.06a3.14,3.14,0,0,1,1.23-.62.73.73,0,0,1,.45.13.22.22,0,0,1,.11.28.52.52,0,0,1-.26.18l-.21.09a3.21,3.21,0,0,0-.27.25c-.14.13-.3.3-.48.49s-.45.53-.64.78a4,4,0,0,0-.36.55.37.37,0,0,0,0,.18.09.09,0,0,0,.1.07,4.33,4.33,0,0,0,1.41-.86l.32-.24.11-.09a.42.42,0,0,1,.29-.13.34.34,0,0,1,.18.08c.07.06.09.1.08.14a4.23,4.23,0,0,1-.66.59,7.79,7.79,0,0,1-1.23.8,2.31,2.31,0,0,1-.42.17,1.43,1.43,0,0,1-.39.06.6.6,0,0,1-.56-.23.76.76,0,0,1,.07-.67,3.76,3.76,0,0,1,.29-.5C37.47,38.09,37.65,37.85,37.86,37.58Z"/><path class="cls-12" d="M41.32,38.81a11.26,11.26,0,0,1-1.28.75,2,2,0,0,1-.79.21.72.72,0,0,1-.59-.21.53.53,0,0,1,0-.57,4,4,0,0,1,.87-1.1A8.41,8.41,0,0,1,41,36.76a4.09,4.09,0,0,1,.76-.4,1.42,1.42,0,0,1,.53-.1,1,1,0,0,1,.41.09,1.57,1.57,0,0,1,.45.27l.33,0h.13a.64.64,0,0,1,.38.09.18.18,0,0,1,.06.25,1.65,1.65,0,0,1-.25.25,18.42,18.42,0,0,0-2.09,2.2c-.17.21-.42.54-.75,1a6,6,0,0,1-.79.93,2.71,2.71,0,0,1-1,.52,4.86,4.86,0,0,1-1.39.19,2.74,2.74,0,0,1-1-.14c-.23-.09-.31-.21-.24-.35a.31.31,0,0,1,.14-.16.42.42,0,0,1,.21-.06.19.19,0,0,1,.12,0,.34.34,0,0,1,.07.16,2,2,0,0,0,.35.08,2.5,2.5,0,0,0,.4,0,3.58,3.58,0,0,0,.83-.09,2.66,2.66,0,0,0,.68-.26A8,8,0,0,0,40,40.5C40.27,40.18,40.71,39.61,41.32,38.81Zm-2.12.35c0,.09,0,.16,0,.2s.1.07.21.07a1,1,0,0,0,.38-.11,5.77,5.77,0,0,0,.6-.35,14.64,14.64,0,0,0,1.5-1.11,3.12,3.12,0,0,0,.74-.77.16.16,0,0,0,0-.19.34.34,0,0,0-.25-.07,1.87,1.87,0,0,0-.71.26,10.9,10.9,0,0,0-1.12.75,8.78,8.78,0,0,0-.88.76A2.19,2.19,0,0,0,39.2,39.16Z"/><path class="cls-12" d="M47.74,37.24A15.26,15.26,0,0,0,46.29,39a1.32,1.32,0,0,1-1,.71.58.58,0,0,1-.31-.06q-.09-.06,0-.18a4.68,4.68,0,0,1,.6-.78c.33-.4.77-.87,1.3-1.43h0a1.2,1.2,0,0,1-.45-.07c-.1,0-.13-.12-.1-.2s.13-.11.31-.15a5.74,5.74,0,0,1,.78-.11,18.51,18.51,0,0,1,3.18-3A4.85,4.85,0,0,1,53,32.51a.28.28,0,0,1,.2.08.49.49,0,0,1,.12.28l.12.14c.16.18.23.31.2.37a.34.34,0,0,1-.2.15.83.83,0,0,1-.31.08.27.27,0,0,1-.26-.17.26.26,0,0,0-.27-.18c-.64,0-2,1.08-4.11,3.22l-.18.19h.3a2.83,2.83,0,0,1,.66,0,.14.14,0,0,1,.07.21.43.43,0,0,1-.31.24,5.76,5.76,0,0,1-1.07.06Z"/><path class="cls-12" d="M51.41,36.65h0l.28,0a.46.46,0,0,1,.47.25c.08.16-.06.66-.06.66l-.06.18s.85-.44,1.06-.57a2.47,2.47,0,0,1,.61-.32.3.3,0,0,1,.18,0s0,.07,0,.12a.52.52,0,0,1-.16.18,2.32,2.32,0,0,1-.32.2,5.45,5.45,0,0,1-.87.48,3,3,0,0,1-.82.22A6.43,6.43,0,0,1,50.2,39.4a3,3,0,0,1-1.55.46,1,1,0,0,1-.79-.25.59.59,0,0,1,0-.68,3.43,3.43,0,0,1,.69-.91,8.19,8.19,0,0,1,1.2-1,3.81,3.81,0,0,1,.7-.41,1.33,1.33,0,0,1,.58-.14.68.68,0,0,1,.27,0A.24.24,0,0,1,51.41,36.65ZM48.8,39a.31.31,0,0,0,0,.27c0,.06.11.08.23.08a2.33,2.33,0,0,0,1.26-.65,3.68,3.68,0,0,0,1.09-1.27.25.25,0,0,0,0-.23.2.2,0,0,0-.19-.09,2.61,2.61,0,0,0-1.27.65A3.57,3.57,0,0,0,48.8,39Z"/><path class="cls-12" d="M53.94,36.54a.52.52,0,0,1-.17-.13.12.12,0,0,1,0-.13,1,1,0,0,1,.46-.35,1.73,1.73,0,0,1,.74-.17.43.43,0,0,1,.28.07.14.14,0,0,1,0,.17,1.17,1.17,0,0,1-.08.13l-.15.18.52.11.2-.13.27-.13.15,0h.09a.69.69,0,0,1,.36.09c.1.07.14.13.11.21a.48.48,0,0,1-.16.16l-.36.18a9.35,9.35,0,0,0-1.32,1.13,3.69,3.69,0,0,0-.71,1,.3.3,0,0,0,0,.22.12.12,0,0,0,.13.09,1.62,1.62,0,0,0,.72-.27,8.3,8.3,0,0,0,1.06-.77l.18-.16a.77.77,0,0,1,.4-.25.28.28,0,0,1,.18.06.13.13,0,0,1,0,.14,1.37,1.37,0,0,1-.28.28,6.55,6.55,0,0,1-.61.48,7.19,7.19,0,0,1-1.23.77,2.19,2.19,0,0,1-.87.2.83.83,0,0,1-.65-.2.47.47,0,0,1,0-.54,3.78,3.78,0,0,1,.54-.81,10.48,10.48,0,0,1,1-1.05l-.41-.1A8.14,8.14,0,0,1,52,38.1a5.48,5.48,0,0,1-1,.35.2.2,0,0,1-.14-.05.1.1,0,0,1,0-.12s.32-.11.48-.19A10.9,10.9,0,0,0,53.94,36.54Z"/><path class="cls-12" d="M61.32,35.21l-.84,0h-.55a1.15,1.15,0,0,1-.52-.08c-.11-.05-.14-.12-.1-.22s.21-.15.51-.19,1-.1,2.12-.15a4.74,4.74,0,0,1,.78-.75.88.88,0,0,1,.51-.16.75.75,0,0,1,.33.06c.08.05.11.1.08.16a8.23,8.23,0,0,0-.66.65l.83,0h.71a4.28,4.28,0,0,1,1.07.08c.19,0,.25.14.2.27a.22.22,0,0,1-.15.09,2.07,2.07,0,0,1-.45,0l-1.33,0-1.42.08c-.82.8-1.52,1.55-2.1,2.23a8,8,0,0,0-1.08,1.5.29.29,0,0,0,0,.25c0,.06.08.09.17.09A1.29,1.29,0,0,0,60,39a6.65,6.65,0,0,0,.82-.52,8.65,8.65,0,0,0,.68-.59c.24-.21.38-.32.43-.32a.5.5,0,0,1,.26.06c.06,0,.08.1.05.15a2.6,2.6,0,0,1-.55.54,11.25,11.25,0,0,1-1.14.82,3.26,3.26,0,0,1-.78.37,2.29,2.29,0,0,1-.76.13.57.57,0,0,1-.55-.24.69.69,0,0,1,0-.66,7.44,7.44,0,0,1,1-1.41C59.92,36.74,60.55,36,61.32,35.21Z"/><path class="cls-12" d="M63.74,37.79l-1.14.86a5,5,0,0,1-2.09,1.19.59.59,0,0,1-.36-.08c-.06,0-.06-.13,0-.24A9.41,9.41,0,0,1,61.5,37.9c.8-.84,1.8-1.81,3-2.92l.33-.31c1-.93,1.69-1.39,2.07-1.39a.26.26,0,0,1,.18,0s.06.08,0,.12a6.57,6.57,0,0,1-.54.49c-1.87,1.64-3.66,3.37-5.37,5.17.49-.33,1.11-.76,1.86-1.3a6.93,6.93,0,0,1,2.59-1.43.37.37,0,0,1,.25.08.19.19,0,0,1,0,.21l-.11.16a2.36,2.36,0,0,1-.22.21c-.67.57-1.15,1-1.46,1.32a3.07,3.07,0,0,0-.57.68c0,.05,0,.09,0,.12a.09.09,0,0,0,.08,0,1.52,1.52,0,0,0,.58-.22,13.47,13.47,0,0,0,1.12-.75l.1-.07a1,1,0,0,1,.39-.21s.09,0,.14.1a.17.17,0,0,1,.06.16,2.55,2.55,0,0,1-.5.44,9.35,9.35,0,0,1-1,.63,3.57,3.57,0,0,1-.67.28,2.08,2.08,0,0,1-.6.09.66.66,0,0,1-.5-.15.39.39,0,0,1,0-.43,2.67,2.67,0,0,1,.32-.5Q63.29,38.29,63.74,37.79Z"/><path class="cls-12" d="M66.32,38.1a2.86,2.86,0,0,0-.22.3,2.43,2.43,0,0,0-.18.32.79.79,0,0,0-.09.48c0,.11.14.17.31.17a3.2,3.2,0,0,0,1.29-.4A8.56,8.56,0,0,0,69,38l.18-.15c.18-.15.3-.23.37-.23a.17.17,0,0,1,.14.06.15.15,0,0,1,0,.16,1.72,1.72,0,0,1-.37.37c-.22.17-.48.35-.79.55A8.5,8.5,0,0,1,67,39.5a3.59,3.59,0,0,1-1.25.24,1.14,1.14,0,0,1-.86-.25c-.14-.17-.13-.42,0-.75a5,5,0,0,1,1-1.26,9.54,9.54,0,0,1,1.54-1.31A2.41,2.41,0,0,1,68,35.9a1.2,1.2,0,0,1,.46-.1l.21,0,.21.09.27.06c.31.06.42.19.32.4a3.31,3.31,0,0,1-1.18,1.3,2.85,2.85,0,0,1-1.5.59.7.7,0,0,1-.25-.05A.44.44,0,0,1,66.32,38.1Zm.69-.19a1.32,1.32,0,0,0,.74-.41,2.76,2.76,0,0,0,.64-.81.1.1,0,0,0,0-.12.12.12,0,0,0-.12,0,1.62,1.62,0,0,0-.77.4,2.13,2.13,0,0,0-.65.64.32.32,0,0,0,0,.25C66.85,37.88,66.91,37.91,67,37.91Z"/><path class="cls-12" d="M73.46,37.24A16.3,16.3,0,0,0,72,39a1.33,1.33,0,0,1-1,.71.56.56,0,0,1-.31-.06q-.09-.06,0-.18a3.93,3.93,0,0,1,.59-.78c.34-.4.78-.87,1.31-1.43h0a1.26,1.26,0,0,1-.46-.07A.15.15,0,0,1,72,37q0-.09.3-.15A6,6,0,0,1,73,36.7a18.55,18.55,0,0,1,3.19-3,4.83,4.83,0,0,1,2.47-1.16.29.29,0,0,1,.21.08.56.56,0,0,1,.11.28l.12.14c.17.18.24.31.21.37a.33.33,0,0,1-.21.15.75.75,0,0,1-.3.08.26.26,0,0,1-.26-.17.27.27,0,0,0-.27-.18c-.64,0-2,1.08-4.11,3.22l-.19.19h.31a2.66,2.66,0,0,1,.65,0,.13.13,0,0,1,.08.21.43.43,0,0,1-.32.24,5.62,5.62,0,0,1-1.06.06Z"/><path class="cls-12" d="M76.44,38.58a6.36,6.36,0,0,1-1.13.79,2,2,0,0,1-.88.26,1.11,1.11,0,0,1-.34-.05.53.53,0,0,1-.23-.17.36.36,0,0,1-.13-.24.61.61,0,0,1,.06-.3,5.53,5.53,0,0,1,.84-1.19A10.11,10.11,0,0,1,76,36.37a1,1,0,0,1,.31-.19.8.8,0,0,1,.3-.06.51.51,0,0,1,.35.11.23.23,0,0,1,0,.26.32.32,0,0,1-.08.09l-.15.1A17.08,17.08,0,0,0,75.39,38a3.69,3.69,0,0,0-.71.91.33.33,0,0,0,0,.24s.09.07.19.07a2.4,2.4,0,0,0,1.11-.62c.51-.41,1.22-1.07,2.11-2a1,1,0,0,1,.33-.33.85.85,0,0,1,.43-.12.6.6,0,0,1,.38.12c.1.08.13.16.09.25a2.44,2.44,0,0,1-.31.29A6.88,6.88,0,0,0,77.1,39a.61.61,0,0,0-.06.22c0,.06,0,.09.07.09a1.51,1.51,0,0,0,.72-.29,10.4,10.4,0,0,0,1.11-.89L79,38a.55.55,0,0,1,.33-.18.34.34,0,0,1,.19.08c.08.06.1.1.09.14a3.6,3.6,0,0,1-.48.46,8,8,0,0,1-1,.7,3.62,3.62,0,0,1-.72.38,1.93,1.93,0,0,1-.67.12.65.65,0,0,1-.57-.23.56.56,0,0,1,0-.59l.08-.13Z"/><path class="cls-12" d="M81.43,35.21l-.84,0H80a1.15,1.15,0,0,1-.52-.08c-.11-.05-.14-.12-.1-.22s.21-.15.51-.19,1-.1,2.12-.15a4.74,4.74,0,0,1,.78-.75.88.88,0,0,1,.51-.16.77.77,0,0,1,.34.06c.07.05.1.1.07.16a8.23,8.23,0,0,0-.66.65l.83,0h.72a4.18,4.18,0,0,1,1.06.08c.19,0,.26.14.2.27a.21.21,0,0,1-.14.09,2.25,2.25,0,0,1-.46,0l-1.33,0-1.42.08c-.82.8-1.52,1.55-2.1,2.23a9.13,9.13,0,0,0-1.08,1.5.29.29,0,0,0,0,.25.17.17,0,0,0,.17.09,1.29,1.29,0,0,0,.57-.19,6.65,6.65,0,0,0,.82-.52c.22-.17.45-.37.69-.59a1.36,1.36,0,0,1,.43-.32.46.46,0,0,1,.25.06q.09.07.06.15a2.79,2.79,0,0,1-.56.54,11.25,11.25,0,0,1-1.14.82,3.2,3.2,0,0,1-.77.37,2.38,2.38,0,0,1-.76.13.59.59,0,0,1-.56-.24.69.69,0,0,1,0-.66,7.61,7.61,0,0,1,1-1.41C80,36.74,80.67,36,81.43,35.21Z"/><path class="cls-12" d="M83.65,38.58a6.74,6.74,0,0,1-1.13.79,2,2,0,0,1-.88.26,1.11,1.11,0,0,1-.34-.05.48.48,0,0,1-.23-.17.43.43,0,0,1-.14-.24.64.64,0,0,1,.07-.3,5.53,5.53,0,0,1,.84-1.19,10.11,10.11,0,0,1,1.38-1.31,1,1,0,0,1,.31-.19.8.8,0,0,1,.3-.06.52.52,0,0,1,.35.11.23.23,0,0,1,0,.26.32.32,0,0,1-.08.09l-.15.1A15.58,15.58,0,0,0,82.6,38a3.69,3.69,0,0,0-.71.91.33.33,0,0,0,0,.24s.08.07.19.07a2.4,2.4,0,0,0,1.11-.62c.51-.41,1.22-1.07,2.11-2a1,1,0,0,1,.33-.33.85.85,0,0,1,.43-.12.6.6,0,0,1,.38.12c.1.08.13.16.09.25a2.18,2.18,0,0,1-.32.29A7,7,0,0,0,84.31,39a.61.61,0,0,0-.06.22c0,.06,0,.09.07.09A1.44,1.44,0,0,0,85,39a9.45,9.45,0,0,0,1.12-.89l.07-.06a.5.5,0,0,1,.33-.18.37.37,0,0,1,.19.08c.07.06.1.1.09.14a3.34,3.34,0,0,1-.49.46,7.17,7.17,0,0,1-.94.7,3.62,3.62,0,0,1-.72.38,1.93,1.93,0,0,1-.67.12.67.67,0,0,1-.58-.23.59.59,0,0,1,0-.59.76.76,0,0,1,.08-.13Z"/><path class="cls-12" d="M87.59,36.54a.67.67,0,0,1-.17-.13.12.12,0,0,1,0-.13,1,1,0,0,1,.47-.35,1.69,1.69,0,0,1,.74-.17.41.41,0,0,1,.27.07.13.13,0,0,1,0,.17.51.51,0,0,1-.08.13,1.5,1.5,0,0,1-.14.18l.52.11.19-.13.28-.13.14,0h.1a.68.68,0,0,1,.35.09c.11.07.15.13.11.21a.44.44,0,0,1-.15.16l-.36.18a9.35,9.35,0,0,0-1.32,1.13,3.47,3.47,0,0,0-.71,1,.38.38,0,0,0,0,.22.12.12,0,0,0,.13.09,1.62,1.62,0,0,0,.72-.27,8.3,8.3,0,0,0,1.06-.77l.18-.16c.19-.17.32-.25.4-.25a.28.28,0,0,1,.18.06.11.11,0,0,1,0,.14,1.52,1.52,0,0,1-.27.28c-.16.14-.36.3-.61.48a7.6,7.6,0,0,1-1.24.77,2.15,2.15,0,0,1-.86.2.84.84,0,0,1-.66-.2.47.47,0,0,1,0-.54,3.35,3.35,0,0,1,.53-.81,10.72,10.72,0,0,1,1-1.05l-.42-.1a14.51,14.51,0,0,1-1.26,1.16,1.45,1.45,0,0,1-.71.35.21.21,0,0,1-.15-.05s0-.07,0-.12.07-.08.2-.19A14.42,14.42,0,0,0,87.59,36.54Z"/><path class="cls-12" d="M90.56,38.1a3,3,0,0,0-.23.3,2.4,2.4,0,0,0-.17.32.67.67,0,0,0-.09.48.28.28,0,0,0,.3.17,3.11,3.11,0,0,0,1.29-.4,7.94,7.94,0,0,0,1.57-1l.19-.15c.08-.07.81-.64,1.51-1.26s1.56-1.46,1.59-1.46a.2.2,0,0,1,.15.06.15.15,0,0,1,0,.16s-.72.78-1.48,1.48-1.52,1.29-1.63,1.38a8,8,0,0,1-.79.55,8.13,8.13,0,0,1-1.5.76,3.6,3.6,0,0,1-1.26.24,1.12,1.12,0,0,1-.85-.25c-.14-.17-.13-.42,0-.75a5,5,0,0,1,1-1.26,9.13,9.13,0,0,1,1.54-1.31,2.36,2.36,0,0,1,.52-.27,1.24,1.24,0,0,1,.47-.1l.21,0,.2.09.28.06c.31.06.41.19.32.4a3.35,3.35,0,0,1-1.19,1.3,2.79,2.79,0,0,1-1.5.59.6.6,0,0,1-.24-.05A.35.35,0,0,1,90.56,38.1Zm.69-.19A1.3,1.3,0,0,0,92,37.5a2.6,2.6,0,0,0,.64-.81.13.13,0,0,0,0-.12.14.14,0,0,0-.13,0,1.6,1.6,0,0,0-.76.4,2,2,0,0,0-.65.64.29.29,0,0,0,0,.25C91.08,37.88,91.15,37.91,91.25,37.91Z"/><path class="cls-13" d="M95.92,34h2v1.85a3.07,3.07,0,0,0-.82-1.1A4.55,4.55,0,0,0,95.92,34Z"/></svg>